<svg xmlns="http://www.w3.org/2000/svg" width="1200" height="630" viewBox="0 0 1200 630">
  <defs><linearGradient id="bg" x1="0" x2="1" y1="0" y2="1"><stop stop-color="#0E1726"/><stop offset="1" stop-color="#111C2E"/></linearGradient><radialGradient id="glow" cx="30%" cy="20%" r="60%"><stop stop-color="#2563EB" stop-opacity="0.45"/><stop offset="1" stop-color="#2563EB" stop-opacity="0"/></radialGradient></defs>
  <rect width="1200" height="630" fill="url(#bg)"/>
  <rect width="1200" height="630" fill="url(#glow)"/>
  <g transform="translate(80 92)">
    <rect width="86" height="86" rx="24" fill="#F8FAFC"/>
    <path d="M43 13 73 30 66 37 43 24 20 37v31l23 14 23-14V49h12v26L43 93 8 75V30L43 13Z" fill="#081B4D" transform="scale(.82) translate(9 4)"/>
    <path d="M28 54h8V39h-8v15Zm16 0h8V27h-8v27Zm16 0h8V19h-8v35Z" fill="#2563EB"/>
    <path d="M17 61c20-3 39-11 62-34" fill="none" stroke="#14B8A6" stroke-width="6" stroke-linecap="round"/>
  </g>
  <text x="186" y="138" fill="#FFFFFF" font-family="Inter, Arial, sans-serif" font-size="34" font-weight="800">RankForge</text>
  <text x="186" y="174" fill="#CBD5E1" font-family="Inter, Arial, sans-serif" font-size="22" font-weight="600">by CrestlineOps</text>
  <text x="80" y="305" fill="#FFFFFF" font-family="Inter, Arial, sans-serif" font-size="64" font-weight="800" letter-spacing="-3">Evidence-based SEO lead intelligence.</text>
  <text x="80" y="365" fill="#CBD5E1" font-family="Inter, Arial, sans-serif" font-size="28" font-weight="500">Find local SEO prospects backed by verified crawl signals.</text>
  <g transform="translate(80 442)">
    <rect width="310" height="54" rx="27" fill="#EFF6FF"/>
    <circle cx="30" cy="27" r="7" fill="#059669"/>
    <text x="50" y="35" fill="#1E3A8A" font-family="Inter, Arial, sans-serif" font-size="18" font-weight="800">No evidence, no strong claim</text>
  </g>
  <g transform="translate(415 442)">
    <rect width="260" height="54" rx="27" fill="#ECFDF5"/>
    <circle cx="30" cy="27" r="7" fill="#059669"/>
    <text x="50" y="35" fill="#065F46" font-family="Inter, Arial, sans-serif" font-size="18" font-weight="800">Qualified-only credits</text>
  </g>
</svg>
