<svg xmlns="http://www.w3.org/2000/svg" viewBox="0 0 720 190" role="img" aria-labelledby="title desc">
  <title id="title">Crestline Ops</title>
  <desc id="desc">Crestline Ops logo</desc>
  <defs>
    <linearGradient id="mark" x1="42" x2="168" y1="30" y2="162" gradientUnits="userSpaceOnUse">
      <stop offset="0" stop-color="#4fb8ff"/>
      <stop offset="1" stop-color="#123a72"/>
    </linearGradient>
  </defs>
  <g transform="translate(18 10)">
    <path d="M111 20c-45 0-82 34-82 76s37 76 82 76c27 0 51-11 66-29l-28-21c-9 10-22 16-37 16-25 0-46-18-46-42s21-42 46-42c14 0 27 5 36 15l29-22c-15-17-39-27-66-27z" fill="url(#mark)"/>
    <path d="M135 90h54M186 89l44-44M173 128l39 38" fill="none" stroke="#77c64a" stroke-width="12" stroke-linecap="round" stroke-linejoin="round"/>
    <circle cx="135" cy="90" r="14" fill="#101615" stroke="#77c64a" stroke-width="11"/>
    <circle cx="189" cy="90" r="14" fill="#101615" stroke="#77c64a" stroke-width="11"/>
    <circle cx="229" cy="44" r="15" fill="#101615" stroke="#77c64a" stroke-width="11"/>
    <circle cx="171" cy="130" r="11" fill="#101615" stroke="#4fb8ff" stroke-width="10"/>
    <circle cx="212" cy="166" r="16" fill="#101615" stroke="#d9e2df" stroke-width="10"/>
  </g>
  <text x="292" y="116" font-family="Inter, Segoe UI, Arial, sans-serif" font-size="58" font-weight="760" letter-spacing="0" fill="#f6fbfa">Crestline</text>
  <text x="562" y="116" font-family="Inter, Segoe UI, Arial, sans-serif" font-size="58" font-weight="760" letter-spacing="0" fill="#77c64a">Ops</text>
</svg>
