<svg xmlns="http://www.w3.org/2000/svg" viewBox="0 0 192 192" role="img" aria-label="Crestline Ops">
  <defs>
    <linearGradient id="mark" x1="26" x2="132" y1="34" y2="150" gradientUnits="userSpaceOnUse">
      <stop offset="0" stop-color="#2aa7ef"/>
      <stop offset="1" stop-color="#0f2f5f"/>
    </linearGradient>
  </defs>
  <rect width="192" height="192" rx="28" fill="#fff"/>
  <path d="M92 31c-38 0-68 29-68 65s30 65 68 65c22 0 42-9 55-24l-27-19c-7 7-16 11-27 11-20 0-36-15-36-33s16-33 36-33c10 0 20 4 27 11l26-20c-12-14-32-23-54-23z" fill="url(#mark)"/>
  <path d="M106 89h42M145 88l28-28M136 121l25 24" fill="none" stroke="#77c64a" stroke-width="11" stroke-linecap="round"/>
  <circle cx="106" cy="89" r="13" fill="#fff" stroke="#77c64a" stroke-width="10"/>
  <circle cx="148" cy="89" r="13" fill="#fff" stroke="#77c64a" stroke-width="10"/>
  <circle cx="171" cy="58" r="13" fill="#fff" stroke="#77c64a" stroke-width="10"/>
  <circle cx="130" cy="124" r="10" fill="#fff" stroke="#2493d1" stroke-width="9"/>
  <circle cx="162" cy="151" r="14" fill="#fff" stroke="#17345f" stroke-width="10"/>
</svg>
